<svg width="18" height="19" viewBox="0 0 18 19" fill="none" xmlns="http://www.w3.org/2000/svg">
<path d="M16.0312 12.8047C15.967 12.8413 15.8962 12.8649 15.8228 12.8742C15.7494 12.8834 15.6749 12.878 15.6036 12.8585C15.5323 12.8389 15.4655 12.8054 15.4072 12.76C15.3488 12.7146 15.2999 12.6581 15.2634 12.5937L13.9275 10.2594C13.1508 10.7845 12.2941 11.1801 11.3906 11.4308L11.8034 13.9072C11.8155 13.9801 11.8132 14.0547 11.7966 14.1267C11.7799 14.1987 11.7492 14.2667 11.7062 14.3269C11.6633 14.387 11.6089 14.4381 11.5461 14.4772C11.4834 14.5163 11.4136 14.5427 11.3407 14.5548C11.3107 14.5597 11.2804 14.5623 11.25 14.5625C11.1169 14.5623 10.9882 14.5149 10.8868 14.4288C10.7853 14.3427 10.7177 14.2234 10.6959 14.0921L10.2902 11.6607C9.43466 11.7798 8.56673 11.7798 7.71117 11.6607L7.30546 14.0921C7.28363 14.2236 7.2158 14.3431 7.11407 14.4293C7.01233 14.5154 6.88331 14.5626 6.74999 14.5625C6.7189 14.5624 6.68787 14.5598 6.65718 14.5548C6.58427 14.5427 6.51445 14.5163 6.45173 14.4772C6.38901 14.4381 6.33461 14.387 6.29165 14.3269C6.24868 14.2667 6.21799 14.1987 6.20132 14.1267C6.18466 14.0547 6.18235 13.9801 6.19453 13.9072L6.60937 11.4308C5.7063 11.1793 4.85001 10.783 4.0739 10.2573L2.74218 12.5937C2.70525 12.6581 2.656 12.7146 2.59725 12.7599C2.5385 12.8052 2.47139 12.8385 2.39977 12.8579C2.32814 12.8773 2.2534 12.8824 2.17981 12.8729C2.10621 12.8634 2.03521 12.8395 1.97085 12.8026C1.9065 12.7656 1.85004 12.7164 1.80472 12.6576C1.75939 12.5989 1.72608 12.5318 1.70669 12.4602C1.6873 12.3885 1.68221 12.3138 1.6917 12.2402C1.7012 12.1666 1.72509 12.0956 1.76203 12.0312L3.16828 9.57031C2.67433 9.14357 2.22012 8.67289 1.81124 8.16406C1.76025 8.10713 1.7214 8.0404 1.69705 7.96795C1.67271 7.8955 1.66338 7.81885 1.66965 7.74268C1.67591 7.66651 1.69763 7.59241 1.73349 7.52491C1.76934 7.45741 1.81857 7.39793 1.87818 7.35009C1.93778 7.30225 2.00652 7.26706 2.08017 7.24667C2.15383 7.22628 2.23088 7.22111 2.3066 7.23148C2.38232 7.24186 2.45514 7.26755 2.5206 7.307C2.58606 7.34645 2.64279 7.39883 2.68734 7.46093C3.85453 8.90515 5.8964 10.625 8.99999 10.625C12.1036 10.625 14.1455 8.90304 15.3127 7.46093C15.3567 7.39756 15.4133 7.34392 15.479 7.30336C15.5446 7.2628 15.6179 7.23618 15.6943 7.22517C15.7707 7.21415 15.8485 7.21897 15.923 7.23933C15.9974 7.25968 16.0669 7.29514 16.127 7.34349C16.1872 7.39185 16.2367 7.45206 16.2726 7.52039C16.3085 7.58871 16.3299 7.66369 16.3356 7.74066C16.3412 7.81763 16.331 7.89494 16.3055 7.96778C16.28 8.04062 16.2398 8.10743 16.1873 8.16406C15.7785 8.67289 15.3243 9.14357 14.8303 9.57031L16.2366 12.0312C16.2743 12.0954 16.2989 12.1664 16.3091 12.2401C16.3192 12.3139 16.3145 12.3889 16.2954 12.4608C16.2763 12.5328 16.2432 12.6002 16.1978 12.6592C16.1525 12.7183 16.0958 12.7677 16.0312 12.8047Z" fill="white"/>
</svg>
