<svg width="41" height="30" viewBox="0 0 41 30" fill="none" xmlns="http://www.w3.org/2000/svg">
<path d="M41 12.3215V13.393C41 14.2806 40.2352 15.0001 39.2917 15.0001H38.7222L36.8635 27.2403C36.623 28.8238 35.1815 30 33.4812 30H7.5188C5.81851 30 4.37696 28.8238 4.13644 27.2403L2.27778 15.0001H1.70833C0.764835 15.0001 0 14.2806 0 13.393V12.3215C0 11.4339 0.764835 10.7144 1.70833 10.7144H6.5017L14.1024 0.882706C14.8423 -0.074341 16.2668 -0.286014 17.2842 0.410075C18.3016 1.10616 18.5265 2.44631 17.7866 3.40343L12.1346 10.7144H28.8654L23.2134 3.40336C22.4735 2.44631 22.6985 1.1061 23.7159 0.410009C24.7331 -0.286081 26.1578 -0.0744749 26.8977 0.88264L34.4983 10.7144H39.2917C40.2352 10.7144 41 11.4339 41 12.3215ZM22.2083 24.1072V16.6072C22.2083 15.7196 21.4435 15.0001 20.5 15.0001C19.5565 15.0001 18.7917 15.7196 18.7917 16.6072V24.1072C18.7917 24.9948 19.5565 25.7143 20.5 25.7143C21.4435 25.7143 22.2083 24.9948 22.2083 24.1072ZM30.1806 24.1072V16.6072C30.1806 15.7196 29.4157 15.0001 28.4722 15.0001C27.5287 15.0001 26.7639 15.7196 26.7639 16.6072V24.1072C26.7639 24.9948 27.5287 25.7143 28.4722 25.7143C29.4157 25.7143 30.1806 24.9948 30.1806 24.1072ZM14.2361 24.1072V16.6072C14.2361 15.7196 13.4713 15.0001 12.5278 15.0001C11.5843 15.0001 10.8194 15.7196 10.8194 16.6072V24.1072C10.8194 24.9948 11.5843 25.7143 12.5278 25.7143C13.4713 25.7143 14.2361 24.9948 14.2361 24.1072Z" fill="#F5F5F5"/>
</svg>
