<svg width="36" height="36" viewBox="0 0 36 36" fill="none" xmlns="http://www.w3.org/2000/svg">
<g filter="url(#filter0_d_6_108)">
<path d="M29 0H7C5.34375 0 4 1.34375 4 3V25C4 26.6562 5.34375 28 7 28H29C30.6562 28 32 26.6562 32 25V3C32 1.34375 30.6562 0 29 0ZM25.9438 9.925C25.9563 10.1 25.9562 10.2812 25.9562 10.4563C25.9562 15.875 21.8312 22.1187 14.2937 22.1187C11.9688 22.1187 9.8125 21.4438 8 20.2812C8.33125 20.3188 8.65 20.3312 8.9875 20.3312C10.9062 20.3312 12.6687 19.6812 14.075 18.5812C12.275 18.5437 10.7625 17.3625 10.2438 15.7375C10.875 15.8312 11.4437 15.8313 12.0938 15.6625C10.2188 15.2812 8.8125 13.6312 8.8125 11.6375V11.5875C9.35625 11.8937 9.99375 12.0813 10.6625 12.1062C10.1003 11.7323 9.63936 11.2249 9.32092 10.6295C9.00247 10.034 8.83639 9.369 8.8375 8.69375C8.8375 7.93125 9.0375 7.23125 9.39375 6.625C11.4125 9.1125 14.4438 10.7375 17.8438 10.9125C17.2625 8.13125 19.3438 5.875 21.8438 5.875C23.025 5.875 24.0875 6.36875 24.8375 7.16875C25.7625 6.99375 26.65 6.65 27.4375 6.18125C27.1313 7.13125 26.4875 7.93125 25.6375 8.4375C26.4625 8.35 27.2625 8.11875 28 7.8C27.4438 8.61875 26.7437 9.34375 25.9438 9.925Z" fill="#319F43"/>
</g>
<defs>
<filter id="filter0_d_6_108" x="0" y="0" width="36" height="36" filterUnits="userSpaceOnUse" color-interpolation-filters="sRGB">
<feFlood flood-opacity="0" result="BackgroundImageFix"/>
<feColorMatrix in="SourceAlpha" type="matrix" values="0 0 0 0 0 0 0 0 0 0 0 0 0 0 0 0 0 0 127 0" result="hardAlpha"/>
<feOffset dy="4"/>
<feGaussianBlur stdDeviation="2"/>
<feComposite in2="hardAlpha" operator="out"/>
<feColorMatrix type="matrix" values="0 0 0 0 0 0 0 0 0 0 0 0 0 0 0 0 0 0 0.25 0"/>
<feBlend mode="normal" in2="BackgroundImageFix" result="effect1_dropShadow_6_108"/>
<feBlend mode="normal" in="SourceGraphic" in2="effect1_dropShadow_6_108" result="shape"/>
</filter>
</defs>
</svg>
