<svg width="33" height="36" viewBox="0 0 33 36" fill="none" xmlns="http://www.w3.org/2000/svg">
<g filter="url(#filter0_d_6_112)">
<path d="M16.5028 6.82115C12.9557 6.82115 10.0945 10.0263 10.0945 14C10.0945 17.9737 12.9557 21.1788 16.5028 21.1788C20.0499 21.1788 22.911 17.9737 22.911 14C22.911 10.0263 20.0499 6.82115 16.5028 6.82115ZM16.5028 18.6672C14.2105 18.6672 12.3366 16.5741 12.3366 14C12.3366 11.4259 14.205 9.33281 16.5028 9.33281C18.8006 9.33281 20.669 11.4259 20.669 14C20.669 16.5741 18.795 18.6672 16.5028 18.6672ZM24.6679 6.5275C24.6679 7.45844 23.9986 8.20194 23.1732 8.20194C22.3422 8.20194 21.6785 7.45219 21.6785 6.5275C21.6785 5.60281 22.3477 4.85306 23.1732 4.85306C23.9986 4.85306 24.6679 5.60281 24.6679 6.5275ZM28.9122 8.22693C28.8173 5.98393 28.36 3.9971 26.8932 2.36015C25.432 0.723195 23.6584 0.210867 21.6562 0.0984045C19.5926 -0.0328015 13.4074 -0.0328015 11.3438 0.0984045C9.34718 0.204619 7.57362 0.716947 6.1068 2.3539C4.63999 3.99085 4.18823 5.97769 4.08784 8.22069C3.97072 10.5324 3.97072 17.4613 4.08784 19.7731C4.18265 22.0161 4.63999 24.0029 6.1068 25.6399C7.57362 27.2768 9.34161 27.7891 11.3438 27.9016C13.4074 28.0328 19.5926 28.0328 21.6562 27.9016C23.6584 27.7954 25.432 27.2831 26.8932 25.6399C28.3544 24.0029 28.8118 22.0161 28.9122 19.7731C29.0293 17.4613 29.0293 10.5387 28.9122 8.22693ZM26.2462 22.2535C25.8112 23.4781 24.969 24.4215 23.8703 24.9151C22.225 25.6461 18.321 25.4774 16.5028 25.4774C14.6846 25.4774 10.775 25.6399 9.13525 24.9151C8.04211 24.4278 7.19994 23.4843 6.75934 22.2535C6.1068 20.4104 6.25739 16.0368 6.25739 14C6.25739 11.9632 6.11238 7.5834 6.75934 5.74651C7.19437 4.52192 8.03653 3.57849 9.13525 3.0849C10.7805 2.3539 14.6846 2.52259 16.5028 2.52259C18.321 2.52259 22.2306 2.36015 23.8703 3.0849C24.9635 3.57224 25.8056 4.51568 26.2462 5.74651C26.8988 7.58965 26.7482 11.9632 26.7482 14C26.7482 16.0368 26.8988 20.4166 26.2462 22.2535Z" fill="#319F43"/>
</g>
<defs>
<filter id="filter0_d_6_112" x="0" y="0" width="33" height="36" filterUnits="userSpaceOnUse" color-interpolation-filters="sRGB">
<feFlood flood-opacity="0" result="BackgroundImageFix"/>
<feColorMatrix in="SourceAlpha" type="matrix" values="0 0 0 0 0 0 0 0 0 0 0 0 0 0 0 0 0 0 127 0" result="hardAlpha"/>
<feOffset dy="4"/>
<feGaussianBlur stdDeviation="2"/>
<feComposite in2="hardAlpha" operator="out"/>
<feColorMatrix type="matrix" values="0 0 0 0 0 0 0 0 0 0 0 0 0 0 0 0 0 0 0.25 0"/>
<feBlend mode="normal" in2="BackgroundImageFix" result="effect1_dropShadow_6_112"/>
<feBlend mode="normal" in="SourceGraphic" in2="effect1_dropShadow_6_112" result="shape"/>
</filter>
</defs>
</svg>
