<svg width="36" height="36" viewBox="0 0 36 36" fill="none" xmlns="http://www.w3.org/2000/svg">
<g filter="url(#filter0_d_6_110)">
<path d="M29 0H7C6.20435 0 5.44129 0.316071 4.87868 0.87868C4.31607 1.44129 4 2.20435 4 3V25C4 25.7956 4.31607 26.5587 4.87868 27.1213C5.44129 27.6839 6.20435 28 7 28H15.5781V18.4806H11.6406V14H15.5781V10.585C15.5781 6.70062 17.8906 4.555 21.4325 4.555C23.1287 4.555 24.9025 4.8575 24.9025 4.8575V8.67H22.9481C21.0225 8.67 20.4219 9.865 20.4219 11.0906V14H24.7206L24.0331 18.4806H20.4219V28H29C29.7956 28 30.5587 27.6839 31.1213 27.1213C31.6839 26.5587 32 25.7956 32 25V3C32 2.20435 31.6839 1.44129 31.1213 0.87868C30.5587 0.316071 29.7956 0 29 0Z" fill="#319F43"/>
</g>
<defs>
<filter id="filter0_d_6_110" x="0" y="0" width="36" height="36" filterUnits="userSpaceOnUse" color-interpolation-filters="sRGB">
<feFlood flood-opacity="0" result="BackgroundImageFix"/>
<feColorMatrix in="SourceAlpha" type="matrix" values="0 0 0 0 0 0 0 0 0 0 0 0 0 0 0 0 0 0 127 0" result="hardAlpha"/>
<feOffset dy="4"/>
<feGaussianBlur stdDeviation="2"/>
<feComposite in2="hardAlpha" operator="out"/>
<feColorMatrix type="matrix" values="0 0 0 0 0 0 0 0 0 0 0 0 0 0 0 0 0 0 0.25 0"/>
<feBlend mode="normal" in2="BackgroundImageFix" result="effect1_dropShadow_6_110"/>
<feBlend mode="normal" in="SourceGraphic" in2="effect1_dropShadow_6_110" result="shape"/>
</filter>
</defs>
</svg>
